<?xml version="1.0" encoding="UTF-8" standalone="no"?>
<svg
   enable-background="new 0 0 48 48"
   height="59.014"
   id="Layer_4"
   version="1.1"
   viewBox="0 0 44.794998 59.014"
   width="44.794998"
   xml:space="preserve"
   sodipodi:docname="django.svg"
   inkscape:version="1.1.2 (b8e25be8, 2022-02-05)"
   xmlns:inkscape="http://www.inkscape.org/namespaces/inkscape"
   xmlns:sodipodi="http://sodipodi.sourceforge.net/DTD/sodipodi-0.dtd"
   xmlns="http://www.w3.org/2000/svg"
   xmlns:svg="http://www.w3.org/2000/svg"><defs
     id="defs126"><inkscape:path-effect
       effect="powerclip"
       id="path-effect332"
       is_visible="true"
       lpeversion="1"
       inverse="true"
       flatten="false"
       hide_clip="false"
       message="Use fill-rule evenodd on &lt;b&gt;fill and stroke&lt;/b&gt; dialog if no flatten result after convert clip to paths." /><inkscape:path-effect
       effect="powermask"
       id="path-effect6390"
       is_visible="true"
       lpeversion="1"
       uri="#mask-powermask-path-effect6390"
       invert="false"
       hide_mask="false"
       background="true"
       background_color="#ffffffff" /><inkscape:path-effect
       effect="powerclip"
       id="path-effect18667"
       is_visible="true"
       lpeversion="1"
       inverse="true"
       flatten="false"
       hide_clip="false"
       message="Use fill-rule evenodd on &lt;b&gt;fill and stroke&lt;/b&gt; dialog if no flatten result after convert clip to paths." /><mask
       maskUnits="userSpaceOnUse"
       id="mask-powermask-path-effect6390"><text
         xml:space="preserve"
         style="font-style:normal;font-variant:normal;font-weight:normal;font-stretch:normal;font-size:23.603px;line-height:1.25;font-family:Arial;-inkscape-font-specification:'Arial, Normal';font-variant-ligatures:normal;font-variant-caps:normal;font-variant-numeric:normal;font-variant-east-asian:normal;fill:#ffffff;fill-opacity:1;stroke:none;stroke-width:0.600198;stroke-opacity:1"
         x="9.5899925"
         y="34.893696"
         id="text6388"
         clip-path="none"><tspan
           sodipodi:role="line"
           id="tspan6386"
           x="9.5899925"
           y="34.893696"
           style="font-style:normal;font-variant:normal;font-weight:normal;font-stretch:normal;font-size:23.603px;font-family:Arial;-inkscape-font-specification:'Arial, Normal';font-variant-ligatures:normal;font-variant-caps:normal;font-variant-numeric:normal;font-variant-east-asian:normal;fill:#000000;fill-opacity:1;stroke:none;stroke-width:0.600198;stroke-opacity:1">ex</tspan></text></mask><clipPath
       clipPathUnits="userSpaceOnUse"
       id="clipPath324"><g
         id="g330"
         style="display:none"><path
           d="m -16.967193,24.565572 c -0.011,1.985 1.444999,3.168 3.767999,2.63 v -5.261 c -2.351999,-0.716 -3.758,0.733 -3.767999,2.631 m 3.838999,-10.238 h 3.1990005 v 15.143 c -3.0660005,0.501 -6.0040005,0.819 -8.1040005,-0.355 -2.705,-1.513 -2.923,-6.319 -0.782,-8.46 1.085,-1.085 3.271,-1.85 5.616,-1.351 v -4.763 c -0.006,-0.101 -0.012,-0.202 0.071,-0.214 m 8.3890005,3.342 h -3.199 v -3.342 h 3.199 z"
           id="path326" /><path
           d="m -4.7391935,19.360572 c -0.003,2.356 -0.003,4.048 -0.003,6.911 -0.136,2.813 -0.104,5.052 -1.135,6.398 -0.203,0.266 -0.634,0.652001 -0.995,0.924 -0.303,0.228001 -0.881,0.691001 -1.208,0.711 -0.331,0.021 -1.18,-0.459 -1.564,-0.64 -0.5050005,-0.237 -0.9710005,-0.553 -1.4930005,-0.71 1.2180005,-0.754 2.3720005,-1.32 2.8440005,-2.844 0.41,-1.326 0.355,-3.247 0.355,-5.119 0,-1.849 0.009,-3.998 0.009,-5.63 z"
           id="path328" /></g><path
         id="lpe_path-effect332"
         class="powerclip"
         d="M -30.390625,3.59375 H 9.0039063 V 42.988281 H -30.390625 Z m 13.423432,20.971822 c -0.011,1.985 1.444999,3.168 3.767999,2.63 v -5.261 c -2.351999,-0.716 -3.758,0.733 -3.767999,2.631 m 3.838999,-10.238 c -0.083,0.012 -0.077,0.113 -0.071,0.214 v 4.763 c -2.345,-0.499 -4.531,0.266 -5.616,1.351 -2.141,2.141 -1.923,6.947 0.782,8.46 2.1,1.174 5.038,0.856 8.1040005,0.355 v -15.143 h -3.1990005 m 8.3890005,3.342 v -3.342 h -3.199 v 3.342 z m 0,1.691 -3.19,10e-4 c 0,1.632 -0.009,3.781 -0.009,5.63 0,1.872 0.055,3.793 -0.355,5.119 -0.472,1.524 -1.626,2.09 -2.8440005,2.844 0.522,0.157 0.988,0.473 1.4930005,0.71 0.384,0.181 1.233,0.661 1.564,0.64 0.327,-0.02 0.905,-0.482999 1.208,-0.711 0.361,-0.271999 0.792,-0.658 0.995,-0.924 1.031,-1.346 0.999,-3.585 1.135,-6.398 0,-2.863 0,-4.555 0.003,-6.911 z" /></clipPath></defs><sodipodi:namedview
     id="namedview124"
     pagecolor="#505050"
     bordercolor="#ffffff"
     borderopacity="1"
     inkscape:pageshadow="0"
     inkscape:pageopacity="0"
     inkscape:pagecheckerboard="1"
     showgrid="false"
     showguides="true"
     inkscape:guide-bbox="true"
     inkscape:zoom="10.24"
     inkscape:cx="5.6152344"
     inkscape:cy="25.244141"
     inkscape:window-width="1296"
     inkscape:window-height="969"
     inkscape:window-x="761"
     inkscape:window-y="53"
     inkscape:window-maximized="0"
     inkscape:current-layer="Layer_4"
     fit-margin-top="5"
     fit-margin-right="5"
     fit-margin-bottom="5"
     fit-margin-left="5"><sodipodi:guide
       position="22.475146,83.499119"
       orientation="1,0"
       id="guide300" /><sodipodi:guide
       position="8.3983849,44.413731"
       orientation="0,-1"
       id="guide306" /><sodipodi:guide
       position="22.67382,13.207723"
       orientation="0,-1"
       id="guide310" /><sodipodi:guide
       position="-3.8085937,30.400719"
       orientation="0,-1"
       id="guide329" /><sodipodi:guide
       position="-5.3710937,53.252281"
       orientation="0,-1"
       id="guide29956" /></sodipodi:namedview><circle
     style="fill:#000000;stroke-width:0.867435"
     id="path169"
     clip-path="url(#clipPath324)"
     inkscape:path-effect="#path-effect332"
     sodipodi:type="arc"
     sodipodi:cx="-10.693359"
     sodipodi:cy="23.291016"
     sodipodi:rx="14.697266"
     sodipodi:ry="14.697266"
     d="M 4.0039062,23.291016 A 14.697266,14.697266 0 0 1 -10.693359,37.988281 14.697266,14.697266 0 0 1 -25.390625,23.291016 14.697266,14.697266 0 0 1 -10.693359,8.59375 14.697266,14.697266 0 0 1 4.0039062,23.291016 Z"
     transform="matrix(1.1694011,0,0,1.1694011,34.913054,1.3223868)" /><path
     style="fill:#000000;stroke-width:0.0976562;fill-opacity:1"
     d="M 20.996094,45.645914 C 20.834961,45.622968 20.351562,45.557499 19.921875,45.50043 15.632276,44.930698 11.385286,42.406911 8.7129874,38.839515 3.2394544,31.5326 4.4522966,21.22964 11.47435,15.382047 c 3.80245,-3.166479 9.017118,-4.560798 13.867447,-3.707936 2.324182,0.408675 5.092852,1.569904 7.03125,2.94903 1.08899,0.774792 2.955081,2.59779 3.724588,3.638578 1.729258,2.338887 2.854678,5.037553 3.264891,7.828952 0.237961,1.619258 0.148572,4.500425 -0.186156,6.000142 -1.557954,6.980268 -7.013702,12.199789 -13.981058,13.375695 -0.857857,0.144784 -3.615138,0.262585 -4.199218,0.179406 z m 5.078125,-4.42752 c 1.224154,-0.711204 2.227321,-1.762654 2.583721,-2.708079 0.551873,-1.463957 0.688946,-3.175694 0.755384,-9.433167 l 0.0547,-5.151367 H 27.551397 25.63477 l -0.0083,1.782227 c -0.02354,5.06998 -0.169134,9.699422 -0.32425,10.310054 -0.361356,1.422517 -0.956326,2.180111 -2.522549,3.212047 l -0.950775,0.626438 1.390228,0.688946 c 1.439978,0.7136 1.969734,0.940412 2.220308,0.950615 0.08057,0.0033 0.366211,-0.12169 0.634766,-0.277714 z m -4.104377,-5.176796 c 0.750405,-0.110965 1.376626,-0.201754 1.391601,-0.201754 0.01498,0 0.02723,-3.999934 0.02723,-8.888741 v -8.888741 l -1.977539,0.02644 -1.977539,0.02644 -0.0259,2.860593 -0.02589,2.860592 -0.36473,-0.07429 c -0.681937,-0.138901 -2.467625,-0.05641 -3.259605,0.150572 -1.460265,0.381643 -2.664737,1.1401 -3.361779,2.116916 -0.876886,1.228847 -1.275989,2.722105 -1.18525,4.434655 0.174297,3.289556 1.735851,5.128085 4.85922,5.721108 1.031216,0.195793 4.111381,0.120731 5.900183,-0.143783 z m 7.473517,-15.973239 v -2.001953 h -1.953125 -1.953125 v 1.936849 c 0,1.065267 0.0293,1.966146 0.0651,2.001953 0.03581,0.03581 0.914713,0.0651 1.953125,0.0651 h 1.88802 z"
     id="path183" /><path
     style="fill:#000000;stroke-width:0.0976562;fill-opacity:1"
     d="m 17.061031,33.018142 c -0.757242,-0.261556 -1.191043,-0.651848 -1.579028,-1.420659 -0.310274,-0.614823 -0.337799,-0.739946 -0.332158,-1.509906 0.01697,-2.316603 1.525366,-3.575061 3.820347,-3.187326 l 0.414574,0.07004 v 3.056198 3.056198 l -0.219727,0.05888 c -0.448701,0.120247 -1.592848,0.05313 -2.104008,-0.123432 z"
     id="path259" /><path
     style="fill:#000000;fill-opacity:1;stroke-width:0.0976562"
     d="M 20.556641,45.601222 C 17.85095,45.267474 15.195521,44.3129 13.037109,42.898103 9.667629,40.689473 7.0728632,37.18947 5.9582279,33.349609 5.1267279,30.485136 5.0774983,27.191441 5.8224911,24.268177 7.7940729,16.531922 15.057779,11.128508 23.046875,11.455093 c 2.597117,0.106167 4.614636,0.623671 6.933594,1.778501 0.805664,0.401217 1.882324,1.026513 2.392578,1.389547 1.088003,0.774089 2.953898,2.596571 3.725254,3.638578 1.737042,2.346531 2.852158,5.025083 3.266906,7.847229 0.221813,1.509318 0.144465,4.485521 -0.152311,5.860708 -1.51999,7.043256 -6.99576,12.300052 -14.066412,13.503902 -1.03471,0.17617 -3.614816,0.247933 -4.589843,0.127664 z m 5.517578,-4.382542 c 0.71776,-0.416581 1.748863,-1.304591 2.089221,-1.799285 0.979199,-1.423215 1.173146,-3.033177 1.251785,-10.391075 l 0.05454,-5.102539 h -1.917497 -1.917497 l -0.007,2.368164 c -0.01396,4.707293 -0.160396,9.062178 -0.32697,9.724117 -0.359543,1.428769 -0.951676,2.183697 -2.521078,3.21419 l -0.950775,0.624295 1.390228,0.688946 c 1.439978,0.7136 1.969734,0.940412 2.220308,0.950615 0.08057,0.0033 0.366211,-0.121562 0.634766,-0.277428 z m -5.712891,-4.989014 c 0.510254,-0.05229 1.400147,-0.166629 1.977539,-0.254084 l 1.049805,-0.159011 v -8.875082 -8.875083 h -1.942677 c -1.68138,0 -1.950649,0.02078 -2.001953,0.154472 -0.0326,0.08496 -0.05928,1.384837 -0.05928,2.888618 v 2.734148 l -0.317383,-0.07192 c -0.56373,-0.127747 -2.338017,-0.06874 -3.100586,0.103126 -1.098032,0.247464 -2.386878,0.904801 -3.002685,1.531431 -0.612576,0.623342 -0.728042,0.783925 -1.09391,1.521335 -0.48627,0.980083 -0.628933,1.69111 -0.632131,3.150512 -0.0033,1.50021 0.133172,2.15103 0.688797,3.285098 0.738902,1.508148 2.132971,2.45052 4.172761,2.820729 0.842827,0.152968 2.990332,0.176004 4.261699,0.04571 z m 9.082031,-16.161307 v -2.001953 h -1.953125 -1.953125 v 1.936849 c 0,1.065267 0.0293,1.966146 0.0651,2.001953 0.03581,0.03581 0.914713,0.0651 1.953125,0.0651 h 1.88802 z"
     id="path1610" /><path
     style="fill:#000000;fill-opacity:1;stroke-width:0.0976562"
     d="m 16.904277,32.961607 c -0.736049,-0.302603 -1.144921,-0.702938 -1.485087,-1.45408 -0.230248,-0.508425 -0.27079,-0.725221 -0.267304,-1.429402 0.01141,-2.303862 1.526738,-3.565032 3.818306,-3.177874 l 0.414574,0.07004 v 3.056198 3.056198 l -0.219727,0.05888 c -0.549294,0.147205 -1.684822,0.05681 -2.260762,-0.179967 z"
     id="path1649" /><text
     xml:space="preserve"
     style="font-style:normal;font-variant:normal;font-weight:900;font-stretch:normal;font-size:7.7457px;line-height:1.25;font-family:'Arial Black';-inkscape-font-specification:'Arial Black, Heavy';font-variant-ligatures:normal;font-variant-caps:normal;font-variant-numeric:normal;font-variant-east-asian:normal;fill:#000000;fill-opacity:1;stroke:none;stroke-width:0.196965"
     x="9.2923784"
     y="54.20332"
     id="text13174"><tspan
       sodipodi:role="line"
       id="tspan30968"
       x="9.2923784"
       y="54.20332"
       style="stroke-width:0.196965">django</tspan></text></svg>
