<?xml version="1.0" encoding="UTF-8" standalone="no"?>
<svg
   enable-background="new 0 0 48 48"
   height="59.014"
   id="Layer_4"
   version="1.1"
   viewBox="0 0 44.794998 59.014"
   width="44.794998"
   xml:space="preserve"
   sodipodi:docname="django.svg"
   inkscape:version="1.1.2 (b8e25be8, 2022-02-05)"
   xmlns:inkscape="http://www.inkscape.org/namespaces/inkscape"
   xmlns:sodipodi="http://sodipodi.sourceforge.net/DTD/sodipodi-0.dtd"
   xmlns="http://www.w3.org/2000/svg"
   xmlns:svg="http://www.w3.org/2000/svg"><defs
     id="defs126"><inkscape:path-effect
       effect="powermask"
       id="path-effect6390"
       is_visible="true"
       lpeversion="1"
       uri="#mask-powermask-path-effect6390"
       invert="false"
       hide_mask="false"
       background="true"
       background_color="#ffffffff" /><inkscape:path-effect
       effect="powerclip"
       id="path-effect18667"
       is_visible="true"
       lpeversion="1"
       inverse="true"
       flatten="false"
       hide_clip="false"
       message="Use fill-rule evenodd on &lt;b&gt;fill and stroke&lt;/b&gt; dialog if no flatten result after convert clip to paths." /><mask
       maskUnits="userSpaceOnUse"
       id="mask-powermask-path-effect6390"><text
         xml:space="preserve"
         style="font-style:normal;font-variant:normal;font-weight:normal;font-stretch:normal;font-size:23.603px;line-height:1.25;font-family:Arial;-inkscape-font-specification:'Arial, Normal';font-variant-ligatures:normal;font-variant-caps:normal;font-variant-numeric:normal;font-variant-east-asian:normal;fill:#ffffff;fill-opacity:1;stroke:none;stroke-width:0.600198;stroke-opacity:1"
         x="9.5899925"
         y="34.893696"
         id="text6388"
         clip-path="none"><tspan
           sodipodi:role="line"
           id="tspan6386"
           x="9.5899925"
           y="34.893696"
           style="font-style:normal;font-variant:normal;font-weight:normal;font-stretch:normal;font-size:23.603px;font-family:Arial;-inkscape-font-specification:'Arial, Normal';font-variant-ligatures:normal;font-variant-caps:normal;font-variant-numeric:normal;font-variant-east-asian:normal;fill:#000000;fill-opacity:1;stroke:none;stroke-width:0.600198;stroke-opacity:1">ex</tspan></text></mask><clipPath
       clipPathUnits="userSpaceOnUse"
       id="clipPath3157"><g
         id="g3167"
         clip-path="url(#clipPath3079)"
         style="display:none"><g
           inkscape:label="Clip"
           id="g3165"><path
             clip-rule="evenodd"
             d="M 15.1717,0 H 10.9961 V 5.9317 C 10.3727,5.78145 9.85683,5.7313 9.17968,5.7313 4.81597,5.7313 2,8.30642 2,12.2742 c 0,4.1182 2.65476,6.2624 7.7547,6.2674 1.7036,0 3.2781,-0.1498 5.417,-0.5305 z M 9.73441,8.9771 c 0.51589,0 0.91889,0.05008 1.40799,0.2004 v 6.2478 c -0.5965,0.0752 -0.9727,0.0997 -1.4348,0.0997 -2.13882,0 -3.30502,-1.1422 -3.30502,-3.2109 0,-2.1246 1.21988,-3.337 3.33183,-3.337 z"
             fill="#000000"
             fill-rule="evenodd"
             id="path3159" /><path
             d="M 22,15.2327 V 6.21493 h -4.1703 v 7.67517 c 0,3.3866 -0.1881,4.6742 -0.7845,5.7859 -0.5697,1.0871 -1.4618,1.7995 -3.305,2.6057 L 17.6148,24 c 1.8433,-0.8622 2.7354,-1.6427 3.4125,-2.8806 C 21.7528,19.8318 22,18.3383 22,15.2327 Z"
             fill="#000000"
             id="path3161" /><path
             d="m 21.5845,0 h -4.1756 v 3.99289 h 4.1756 z"
             fill="#000000"
             id="path3163" /></g></g><path
         id="lpe_path-effect3169"
         class="powerclip"
         d="M -8.6934586,-11.763664 H 37.509632 v 46.20309 H -8.6934586 Z M 15.1717,0 H 10.9961 V 5.9317 C 10.3727,5.78145 9.85683,5.7313 9.17968,5.7313 4.81597,5.7313 2,8.30642 2,12.2742 c 0,4.1182 2.65476,6.2624 7.7547,6.2674 1.7036,0 3.2781,-0.1498 5.417,-0.5305 z M 9.73441,8.9771 c -2.11195,0 -3.33183,1.2124 -3.33183,3.337 0,2.0687 1.1662,3.2109 3.30502,3.2109 0.4621,0 0.8383,-0.0245 1.4348,-0.0997 V 9.1775 C 10.6533,9.02718 10.2503,8.9771 9.73441,8.9771 Z M 22,15.2327 V 6.21493 h -4.1703 v 7.67517 c 0,3.3866 -0.1881,4.6742 -0.7845,5.7859 -0.5697,1.0871 -1.4618,1.7995 -3.305,2.6057 L 17.6148,24 c 1.8433,-0.8622 2.7354,-1.6427 3.4125,-2.8806 C 21.7528,19.8318 22,18.3383 22,15.2327 Z M 21.5845,0 h -4.1756 v 3.99289 h 4.1756 z" /></clipPath><inkscape:path-effect
       effect="powerclip"
       id="path-effect3169"
       is_visible="true"
       lpeversion="1"
       inverse="true"
       flatten="false"
       hide_clip="false"
       message="Use fill-rule evenodd on &lt;b&gt;fill and stroke&lt;/b&gt; dialog if no flatten result after convert clip to paths." /></defs><sodipodi:namedview
     id="namedview124"
     pagecolor="#505050"
     bordercolor="#ffffff"
     borderopacity="1"
     inkscape:pageshadow="0"
     inkscape:pageopacity="0"
     inkscape:pagecheckerboard="1"
     showgrid="false"
     showguides="true"
     inkscape:guide-bbox="true"
     inkscape:zoom="10.24"
     inkscape:cx="22.509766"
     inkscape:cy="25.439453"
     inkscape:window-width="1296"
     inkscape:window-height="969"
     inkscape:window-x="761"
     inkscape:window-y="109"
     inkscape:window-maximized="0"
     inkscape:current-layer="Layer_4"
     fit-margin-top="5"
     fit-margin-right="5"
     fit-margin-bottom="5"
     fit-margin-left="5"><sodipodi:guide
       position="22.475146,83.499119"
       orientation="1,0"
       id="guide300" /><sodipodi:guide
       position="8.3983849,44.413731"
       orientation="0,-1"
       id="guide306" /><sodipodi:guide
       position="22.67382,13.207723"
       orientation="0,-1"
       id="guide310" /><sodipodi:guide
       position="-3.8085937,30.400719"
       orientation="0,-1"
       id="guide329" /><sodipodi:guide
       position="-5.3710937,53.252281"
       orientation="0,-1"
       id="guide29956" /></sodipodi:namedview><circle
     style="fill:#000000;stroke-width:1.3004"
     id="path2915"
     clip-path="url(#clipPath3157)"
     inkscape:path-effect="#path-effect3169"
     sodipodi:type="arc"
     sodipodi:cx="14.408087"
     sodipodi:cy="11.337881"
     sodipodi:rx="18.101545"
     sodipodi:ry="18.101545"
     transform="translate(8.0513523,17.373056)"
     d="M 32.509632,11.337881 A 18.101545,18.101545 0 0 1 14.408087,29.439426 18.101545,18.101545 0 0 1 -3.6934586,11.337881 18.101545,18.101545 0 0 1 14.408087,-6.7636642 18.101545,18.101545 0 0 1 32.509632,11.337881 Z" /></svg>
