<?xml version="1.0" encoding="UTF-8" standalone="no"?>
<svg
   enable-background="new 0 0 56.693 56.693"
   height="59.014"
   id="Layer_1"
   version="1.1"
   viewBox="0 0 44.794998 59.013999"
   width="44.794998"
   xml:space="preserve"
   sodipodi:docname="html.svg"
   inkscape:version="1.1.2 (b8e25be8, 2022-02-05)"
   xmlns:inkscape="http://www.inkscape.org/namespaces/inkscape"
   xmlns:sodipodi="http://sodipodi.sourceforge.net/DTD/sodipodi-0.dtd"
   xmlns="http://www.w3.org/2000/svg"
   xmlns:svg="http://www.w3.org/2000/svg"><defs
     id="defs116" /><sodipodi:namedview
     id="namedview114"
     pagecolor="#505050"
     bordercolor="#ffffff"
     borderopacity="1"
     inkscape:pageshadow="0"
     inkscape:pageopacity="0"
     inkscape:pagecheckerboard="1"
     showgrid="false"
     width="44.795px"
     fit-margin-top="5"
     fit-margin-right="5"
     fit-margin-bottom="5"
     fit-margin-left="5"
     inkscape:zoom="11.024289"
     inkscape:cx="22.35972"
     inkscape:cy="27.983665"
     inkscape:window-width="1296"
     inkscape:window-height="969"
     inkscape:window-x="0"
     inkscape:window-y="25"
     inkscape:window-maximized="0"
     inkscape:current-layer="Layer_1" /><g
     id="g111"
     transform="translate(-5.949,-0.391)"><polygon
       enable-background="new    "
       points="20.598,5.391 18.382,5.391 18.382,7.581 16.356,7.581 16.356,5.391 14.141,5.391 14.141,12.018 16.356,12.018 16.356,9.799 18.382,9.799 18.382,12.018 20.598,12.018 "
       id="polygon101" /><polygon
       enable-background="new    "
       points="27.674,5.391 21.561,5.391 21.561,7.59 23.51,7.59 23.51,12.018 25.725,12.018 25.725,7.59 27.674,7.59 "
       id="polygon103" /><polygon
       enable-background="new    "
       points="33.898,12.018 36.105,12.018 36.105,5.391 33.795,5.391 32.375,7.723 30.955,5.391 28.646,5.391 28.646,12.018 30.812,12.018 30.812,8.735 32.338,11.09 32.375,11.09 33.898,8.735 "
       id="polygon105" /><polygon
       enable-background="new    "
       points="37.207,12.018 42.537,12.018 42.537,9.829 39.422,9.829 39.422,5.391 37.207,5.391 "
       id="polygon107" /><path
       d="m 10.949,14.926 3.168,35.532 14.221,3.947 14.232,-3.945 3.174,-35.534 z m 27.922,11.62 H 28.346 22.194 l 0.398,4.463 h 5.754 10.129 l -1.195,13.383 -8.934,2.475 -0.006,0.002 -8.928,-2.477 -0.623,-7 h 4.374 l 0.324,3.631 4.854,1.312 0.006,-0.002 v 0 l 4.859,-1.312 0.506,-5.652 h -5.365 v 0 H 18.608 L 17.431,22.19 H 28.346 39.26 Z"
       enable-background="new    "
       id="path109" /></g></svg>
