<?xml version="1.0" encoding="UTF-8" standalone="no"?>
<svg
   enable-background="new 0 0 48 48"
   height="59.014"
   id="Layer_4"
   version="1.1"
   viewBox="0 0 44.794998 59.014"
   width="44.794998"
   xml:space="preserve"
   sodipodi:docname="mongoDB.svg"
   inkscape:version="1.1.2 (b8e25be8, 2022-02-05)"
   xmlns:inkscape="http://www.inkscape.org/namespaces/inkscape"
   xmlns:sodipodi="http://sodipodi.sourceforge.net/DTD/sodipodi-0.dtd"
   xmlns="http://www.w3.org/2000/svg"
   xmlns:svg="http://www.w3.org/2000/svg"><defs
     id="defs126" /><sodipodi:namedview
     id="namedview124"
     pagecolor="#505050"
     bordercolor="#ffffff"
     borderopacity="1"
     inkscape:pageshadow="0"
     inkscape:pageopacity="0"
     inkscape:pagecheckerboard="1"
     showgrid="false"
     showguides="true"
     inkscape:guide-bbox="true"
     inkscape:zoom="10.24"
     inkscape:cx="40.478516"
     inkscape:cy="34.423828"
     inkscape:window-width="1296"
     inkscape:window-height="969"
     inkscape:window-x="1049"
     inkscape:window-y="131"
     inkscape:window-maximized="0"
     inkscape:current-layer="Layer_4"
     fit-margin-top="5"
     fit-margin-right="5"
     fit-margin-bottom="5"
     fit-margin-left="5"><sodipodi:guide
       position="22.475146,83.499119"
       orientation="1,0"
       id="guide300" /><sodipodi:guide
       position="8.3983849,44.413731"
       orientation="0,-1"
       id="guide306" /><sodipodi:guide
       position="22.67382,13.207723"
       orientation="0,-1"
       id="guide310" /><sodipodi:guide
       position="11.757739,47.45007"
       orientation="0,-1"
       id="guide329" /><sodipodi:guide
       position="-11.886945,54.104175"
       orientation="0,-1"
       id="guide29956" /></sodipodi:namedview><text
     xml:space="preserve"
     style="font-style:normal;font-variant:normal;font-weight:900;font-stretch:normal;font-size:7.7457px;line-height:1.25;font-family:'Arial Black';-inkscape-font-specification:'Arial Black, Heavy';font-variant-ligatures:normal;font-variant-caps:normal;font-variant-numeric:normal;font-variant-east-asian:normal;fill:#000000;fill-opacity:1;stroke:none;stroke-width:0.196965"
     x="2.053025"
     y="54.275837"
     id="text13174"><tspan
       sodipodi:role="line"
       id="tspan30968"
       x="2.053025"
       y="54.275837"
       style="stroke-width:0.196965">mongoDB</tspan></text><path
     d="m 22.54979,12.714681 0.84553,-0.775084 c -0.217249,-0.237013 -0.524014,-0.371958 -0.84553,-0.371958 -0.321539,0 -0.628304,0.134938 -0.845554,0.371958 z m 0,29.823097 -0.901942,0.708643 c 0.217456,0.276896 0.549937,0.4384 0.901942,0.4384 0.351981,0 0.684463,-0.161504 0.901919,-0.4384 z m -6.600333,-8.400432 -0.901943,0.708597 v 0 z M 16.513388,19.29985 15.667835,18.524748 v 0 z m 12.072872,-2.2e-5 0.84537,-0.77508 z m 0.563886,14.837541 0.901804,0.708574 v 0 z M 23.696832,45.978905 V 12.714681 h -2.294084 v 33.264224 z m -0.245123,-4.149769 -6.600333,-8.400456 -1.803862,1.417263 6.600334,8.400478 z m -6.09279,-21.754206 6.036401,-6.585165 -1.691084,-1.550168 -6.036401,6.585151 z m 4.345317,-6.585165 6.036379,6.585165 1.691015,-1.550182 -6.03631,-6.585151 z m 6.543922,19.938938 -6.60031,8.400433 1.803861,1.417285 6.600241,-8.400478 z M 27.740615,20.07493 c 3.415937,3.726556 3.630893,9.378653 0.507543,13.353773 l 1.803792,1.41724 c 3.817357,-4.858366 3.554914,-11.76652 -0.62032,-16.321195 z M 16.851376,33.42868 c -3.123281,-3.975097 -2.908463,-9.627194 0.507543,-13.35375 l -1.691084,-1.550182 c -4.175119,4.554698 -4.437677,11.462829 -0.620321,16.321195 z"
     fill="#000000"
     id="path41915"
     style="stroke-width:2.29408" /></svg>
