<?xml version="1.0" encoding="UTF-8" standalone="no"?>
<svg
   enable-background="new 0 0 48 48"
   height="59.014"
   id="Layer_4"
   version="1.1"
   viewBox="0 0 44.794998 59.014"
   width="44.794998"
   xml:space="preserve"
   sodipodi:docname="python.svg"
   inkscape:version="1.1.2 (b8e25be8, 2022-02-05)"
   xmlns:inkscape="http://www.inkscape.org/namespaces/inkscape"
   xmlns:sodipodi="http://sodipodi.sourceforge.net/DTD/sodipodi-0.dtd"
   xmlns="http://www.w3.org/2000/svg"
   xmlns:svg="http://www.w3.org/2000/svg"><defs
     id="defs126"><inkscape:path-effect
       effect="powermask"
       id="path-effect6390"
       is_visible="true"
       lpeversion="1"
       uri="#mask-powermask-path-effect6390"
       invert="false"
       hide_mask="false"
       background="true"
       background_color="#ffffffff" /><inkscape:path-effect
       effect="powerclip"
       id="path-effect18667"
       is_visible="true"
       lpeversion="1"
       inverse="true"
       flatten="false"
       hide_clip="false"
       message="Use fill-rule evenodd on &lt;b&gt;fill and stroke&lt;/b&gt; dialog if no flatten result after convert clip to paths." /><mask
       maskUnits="userSpaceOnUse"
       id="mask-powermask-path-effect6390"><text
         xml:space="preserve"
         style="font-style:normal;font-variant:normal;font-weight:normal;font-stretch:normal;font-size:23.603px;line-height:1.25;font-family:Arial;-inkscape-font-specification:'Arial, Normal';font-variant-ligatures:normal;font-variant-caps:normal;font-variant-numeric:normal;font-variant-east-asian:normal;fill:#ffffff;fill-opacity:1;stroke:none;stroke-width:0.600198;stroke-opacity:1"
         x="9.5899925"
         y="34.893696"
         id="text6388"
         clip-path="none"><tspan
           sodipodi:role="line"
           id="tspan6386"
           x="9.5899925"
           y="34.893696"
           style="font-style:normal;font-variant:normal;font-weight:normal;font-stretch:normal;font-size:23.603px;font-family:Arial;-inkscape-font-specification:'Arial, Normal';font-variant-ligatures:normal;font-variant-caps:normal;font-variant-numeric:normal;font-variant-east-asian:normal;fill:#000000;fill-opacity:1;stroke:none;stroke-width:0.600198;stroke-opacity:1">ex</tspan></text></mask></defs><sodipodi:namedview
     id="namedview124"
     pagecolor="#505050"
     bordercolor="#ffffff"
     borderopacity="1"
     inkscape:pageshadow="0"
     inkscape:pageopacity="0"
     inkscape:pagecheckerboard="1"
     showgrid="false"
     showguides="true"
     inkscape:guide-bbox="true"
     inkscape:zoom="10.24"
     inkscape:cx="21.044922"
     inkscape:cy="23.486328"
     inkscape:window-width="1296"
     inkscape:window-height="969"
     inkscape:window-x="761"
     inkscape:window-y="137"
     inkscape:window-maximized="0"
     inkscape:current-layer="Layer_4"
     fit-margin-top="5"
     fit-margin-right="5"
     fit-margin-bottom="5"
     fit-margin-left="5"><sodipodi:guide
       position="22.475146,83.499119"
       orientation="1,0"
       id="guide300" /><sodipodi:guide
       position="8.3983849,44.413731"
       orientation="0,-1"
       id="guide306" /><sodipodi:guide
       position="22.67382,13.207723"
       orientation="0,-1"
       id="guide310" /><sodipodi:guide
       position="-3.8085937,30.400719"
       orientation="0,-1"
       id="guide329" /><sodipodi:guide
       position="-5.3710937,53.252281"
       orientation="0,-1"
       id="guide29956" /></sodipodi:namedview><text
     xml:space="preserve"
     style="font-style:normal;font-variant:normal;font-weight:900;font-stretch:normal;font-size:7.7457px;line-height:1.25;font-family:'Arial Black';-inkscape-font-specification:'Arial Black, Heavy';font-variant-ligatures:normal;font-variant-caps:normal;font-variant-numeric:normal;font-variant-east-asian:normal;fill:#000000;fill-opacity:1;stroke:none;stroke-width:0.196965"
     x="9.2795877"
     y="54.080524"
     id="text13174"><tspan
       sodipodi:role="line"
       id="tspan30968"
       x="9.2795877"
       y="54.080524"
       style="stroke-width:0.196965">python</tspan></text><path
     d="m 25.834817,11.23934 1.275038,0.283341 1.034198,0.368345 0.835858,0.425012 0.63752,0.453348 0.481681,0.481681 0.354177,0.481681 0.226673,0.467514 0.141671,0.425013 0.05667,0.368344 0.02833,0.283342 -0.01417,0.184171 v 7.565227 l -0.07084,0.892527 -0.184172,0.77919 -0.297509,0.651686 -0.368344,0.538351 -0.425013,0.43918 -0.467514,0.354177 -0.495848,0.269175 -0.495848,0.198339 -0.467514,0.141671 -0.425013,0.09917 -0.368345,0.05667 -0.297509,0.02833 H 18.07124 l -0.977529,0.07084 -0.835858,0.198339 -0.708355,0.311676 -0.580851,0.382512 -0.467514,0.453347 -0.382511,0.495848 -0.283342,0.510014 -0.212507,0.524182 -0.14167,0.495849 -0.09917,0.453347 -0.05667,0.382511 -0.02834,0.297509 v 4.33513 H 10.137679 L 9.8401703,36.343426 9.4434918,36.244256 8.9901448,36.074252 8.4942966,35.819245 7.9842813,35.450899 7.4742659,34.940885 6.9784177,34.289198 6.5250708,33.453339 6.1283922,32.419142 5.8308833,31.172437 5.632544,29.684893 5.5617085,27.94234 l 0.085003,-1.728385 0.2266734,-1.473376 0.3400102,-1.232539 0.453347,-1.005863 0.5100153,-0.807524 0.5666837,-0.623352 0.5950179,-0.467514 0.5950178,-0.340011 0.5666837,-0.226673 0.5100155,-0.141671 0.453347,-0.07083 0.34001,-0.01417 h 0.226674 l 0.085,0.01417 h 11.560346 v -1.175869 h -8.273581 l -0.01417,-3.895949 -0.02833,-0.524184 0.07084,-0.481681 0.155838,-0.43918 0.24084,-0.396678 0.354178,-0.368345 0.439179,-0.325843 0.53835,-0.283342 0.623352,-0.255007 0.722522,-0.212507 0.821691,-0.170005 0.906694,-0.141671 1.005864,-0.085 1.090866,-0.05667 1.190035,-0.02833 1.799221,0.07084 z m -8.925268,2.805084 -0.325843,0.467514 -0.113337,0.580851 0.113337,0.580851 0.325843,0.481681 0.467514,0.311675 0.580851,0.127504 0.58085,-0.127504 0.467514,-0.311675 0.325844,-0.481681 0.113336,-0.580851 -0.113336,-0.580851 -0.325844,-0.467514 -0.467514,-0.311676 -0.58085,-0.127504 -0.580851,0.127504 z m 18.544724,5.596001 0.396678,0.085 0.453348,0.170005 0.495848,0.255008 0.510016,0.382511 0.510015,0.495848 0.495848,0.665854 0.453347,0.835858 0.396679,1.034198 0.297509,1.246704 0.198339,1.473378 0.07084,1.742552 -0.085,1.742552 -0.226674,1.473378 -0.34001,1.21837 -0.453347,1.005862 -0.510015,0.807525 -0.566684,0.637519 -0.595018,0.467514 -0.595018,0.34001 -0.566683,0.226673 -0.510016,0.127504 -0.453347,0.07084 -0.34001,0.02833 -0.226673,-0.01417 h -11.64535 v 1.161701 h 8.273582 l 0.01417,3.910118 0.02833,0.510015 -0.07083,0.481681 -0.155838,0.43918 -0.240841,0.410846 -0.354177,0.354177 -0.43918,0.34001 -0.53835,0.283342 -0.623352,0.240841 -0.722521,0.212506 -0.821692,0.184172 -0.906694,0.127504 -1.005863,0.09917 -1.090866,0.05667 -1.190036,0.01417 -1.799221,-0.05667 L 19.459636,44.730342 18.184598,44.447 17.1504,44.092822 16.314542,43.66781 15.677023,43.200296 15.195342,42.718614 14.841164,42.236933 14.614491,41.769419 14.47282,41.344407 14.41615,40.990229 14.38781,40.706887 14.40198,40.522715 v -7.565227 l 0.07084,-0.906694 0.184172,-0.765023 0.297509,-0.651686 0.368345,-0.53835 0.425012,-0.453347 0.467514,-0.34001 0.495849,-0.283342 0.495848,-0.198339 0.467514,-0.141671 0.425013,-0.085 0.368344,-0.05667 0.297509,-0.02833 0.184172,-0.01417 h 8.273582 l 0.977529,-0.07084 0.835859,-0.198339 0.708354,-0.297509 0.580851,-0.396678 0.467514,-0.453347 0.382512,-0.495849 0.283342,-0.510015 0.212506,-0.510015 0.141671,-0.495848 0.09917,-0.453347 0.05667,-0.396679 0.02833,-0.297509 v -4.33513 h 2.960922 l 0.19834,0.01417 z m -9.166109,20.188106 -0.325842,0.467514 -0.113338,0.580851 0.113338,0.58085 0.325842,0.467514 0.467515,0.325843 0.58085,0.113337 0.580851,-0.113337 0.467515,-0.325843 0.325842,-0.467514 0.113336,-0.58085 -0.113336,-0.580851 -0.325842,-0.467514 -0.467515,-0.325843 -0.580851,-0.113337 -0.58085,0.113337 z"
     id="path6444"
     style="stroke-width:1.41671" /></svg>
