<?xml version="1.0" encoding="UTF-8" standalone="no"?>
<svg
   enable-background="new 0 0 48 48"
   height="59.014"
   id="Layer_4"
   version="1.1"
   viewBox="0 0 44.794998 59.014"
   width="44.794998"
   xml:space="preserve"
   sodipodi:docname="react.svg"
   inkscape:version="1.1.2 (b8e25be8, 2022-02-05)"
   xmlns:inkscape="http://www.inkscape.org/namespaces/inkscape"
   xmlns:sodipodi="http://sodipodi.sourceforge.net/DTD/sodipodi-0.dtd"
   xmlns="http://www.w3.org/2000/svg"
   xmlns:svg="http://www.w3.org/2000/svg"><defs
     id="defs126" /><sodipodi:namedview
     id="namedview124"
     pagecolor="#505050"
     bordercolor="#ffffff"
     borderopacity="1"
     inkscape:pageshadow="0"
     inkscape:pageopacity="0"
     inkscape:pagecheckerboard="1"
     showgrid="false"
     showguides="true"
     inkscape:guide-bbox="true"
     inkscape:zoom="10.24"
     inkscape:cx="45.166016"
     inkscape:cy="36.767578"
     inkscape:window-width="1296"
     inkscape:window-height="969"
     inkscape:window-x="1049"
     inkscape:window-y="131"
     inkscape:window-maximized="0"
     inkscape:current-layer="Layer_4"
     fit-margin-top="5"
     fit-margin-right="5"
     fit-margin-bottom="5"
     fit-margin-left="5"><sodipodi:guide
       position="22.475146,83.499119"
       orientation="1,0"
       id="guide300" /><sodipodi:guide
       position="8.3983849,44.413731"
       orientation="0,-1"
       id="guide306" /><sodipodi:guide
       position="22.67382,13.207723"
       orientation="0,-1"
       id="guide310" /><sodipodi:guide
       position="11.757739,47.45007"
       orientation="0,-1"
       id="guide329" /><sodipodi:guide
       position="-11.886945,54.104175"
       orientation="0,-1"
       id="guide29956" /></sodipodi:namedview><text
     xml:space="preserve"
     style="font-style:normal;font-variant:normal;font-weight:900;font-stretch:normal;font-size:8.8px;line-height:1.25;font-family:'Arial Black';-inkscape-font-specification:'Arial Black, Heavy';font-variant-ligatures:normal;font-variant-caps:normal;font-variant-numeric:normal;font-variant-east-asian:normal;fill:#000000;fill-opacity:1;stroke:none;stroke-width:0.223775"
     x="7.4569111"
     y="54.151619"
     id="text13174"><tspan
       sodipodi:role="line"
       id="tspan30968"
       x="7.4569111"
       y="54.151619"
       style="stroke-width:0.223775">React</tspan></text><path
     d="m 22.366071,22.17815 a 3.6209837,3.6209837 0 1 0 0,7.241967 3.6209837,3.6209837 0 1 0 0,-7.241967 z M 12.222576,33.002166 11.423556,32.799024 C 5.4681459,31.29409 2.0519959,28.739596 2.0519959,25.792362 c 0,-2.947234 3.41615,-5.501729 9.3715601,-7.006663 l 0.79902,-0.201448 0.225148,0.792249 a 39.832513,39.832513 0 0 0 2.30734,6.05698 l 0.170976,0.360575 -0.170976,0.360575 a 39.45501,39.45501 0 0 0 -2.30734,6.05698 z M 11.052824,20.635973 c -4.5266526,1.271322 -7.3046027,3.216395 -7.3046027,5.156389 0,1.938302 2.7779501,3.883374 7.3046027,5.156389 a 42.236346,42.236346 0 0 1 2.000936,-5.156389 41.901163,41.901163 0 0 1 -2.000936,-5.156389 z m 21.45674,12.366193 -0.225147,-0.793943 a 39.539652,39.539652 0 0 0 -2.309033,-6.055287 l -0.170977,-0.360574 0.170977,-0.360575 a 39.646301,39.646301 0 0 0 2.309033,-6.05698 l 0.225147,-0.792248 0.800713,0.201447 c 5.953717,1.504934 9.369868,4.05943 9.369868,7.008356 0,2.948927 -3.416151,5.501728 -9.369868,7.006662 z M 31.67838,25.792362 c 0.812563,1.75886 1.484621,3.487249 2.000937,5.156389 4.528346,-1.273015 7.304602,-3.218087 7.304602,-5.156389 0,-1.939994 -2.777949,-3.883373 -7.304602,-5.156389 A 41.962105,41.962105 0 0 1 31.67838,25.792362 Z M 11.040974,20.627508 10.815827,19.836952 C 9.1416088,13.935714 9.6494598,9.7070001 12.209033,8.230844 14.719515,6.7817735 18.750165,8.4932345 22.9738,12.828598 L 23.549365,13.419399 22.9738,14.0102 a 39.869756,39.869756 0 0 0 -4.100058,5.022654 l -0.228533,0.326718 -0.397817,0.03385 a 40.047504,40.047504 0 0 0 -6.407397,1.032635 z M 14.250598,9.4039824 c -0.453681,0 -0.854885,0.098181 -1.193452,0.2928615 -1.682683,0.9699971 -1.980623,4.3421341 -0.821027,8.8924851 a 42.527514,42.527514 0 0 1 5.47295,-0.848112 42.061984,42.061984 0 0 1 3.473707,-4.306583 C 18.541946,10.86321 16.041622,9.4039824 14.250598,9.4039824 Z M 30.483236,43.87358 c -0.0017,0 -0.0017,0 0,0 -2.412296,0 -5.510193,-1.816416 -8.724895,-5.117453 l -0.575565,-0.590801 0.575565,-0.590801 a 39.832513,39.832513 0 0 0 4.098364,-5.024347 l 0.228534,-0.326719 0.396125,-0.03385 a 40.001797,40.001797 0 0 0 6.410783,-1.030939 l 0.799019,-0.201449 0.226842,0.79225 c 1.670831,5.897852 1.164672,10.128258 -1.394901,11.602721 a 4.028958,4.028958 0 0 1 -2.039871,0.521395 z m -6.933871,-5.72349 c 2.64083,2.571424 5.141154,4.030651 6.932178,4.030651 h 0.0017 c 0.451988,0 0.854884,-0.09818 1.191759,-0.292861 1.682683,-0.969997 1.982315,-4.343826 0.821027,-8.894179 a 42.354844,42.354844 0 0 1 -5.474643,0.848113 41.769122,41.769122 0 0 1 -3.472014,4.308276 z M 33.691166,20.627508 32.892147,20.426061 a 39.746179,39.746179 0 0 0 -6.410783,-1.032632 l -0.396125,-0.03385 -0.228534,-0.326718 a 39.636144,39.636144 0 0 0 -4.098364,-5.022654 l -0.575565,-0.590801 0.575565,-0.590801 c 4.221942,-4.3336703 8.2509,-6.0451313 10.764766,-4.5977535 2.559573,1.476156 3.067426,5.7048695 1.394901,11.6044155 z m -6.669787,-2.886291 c 1.933222,0.176056 3.769954,0.462146 5.474643,0.848112 1.161288,-4.550351 0.861656,-7.922488 -0.821027,-8.8924851 -1.672526,-0.9666117 -4.816129,0.5146221 -8.12563,3.7377901 a 42.065369,42.065369 0 0 1 3.472014,4.306583 z M 14.250598,43.87358 A 4.028958,4.028958 0 0 1 12.209033,43.352186 C 9.6494598,41.877723 9.1416088,37.649009 10.815827,31.749465 l 0.223455,-0.79225 0.799019,0.201449 c 1.955231,0.492616 4.111908,0.839647 6.407399,1.030938 l 0.397817,0.03385 0.22684,0.326719 a 39.944241,39.944241 0 0 0 4.100058,5.024347 l 0.575565,0.590801 -0.575565,0.590801 c -3.21301,3.301038 -6.310906,5.117454 -8.719817,5.117454 z M 12.236119,32.993701 c -1.161288,4.550353 -0.861656,7.924182 0.821027,8.894179 1.670832,0.953069 4.812743,-0.516316 8.12563,-3.73779 a 42.317602,42.317602 0 0 1 -3.473707,-4.308276 42.280359,42.280359 0 0 1 -5.47295,-0.848113 z m 10.129952,1.063104 c -1.393207,0 -2.825349,-0.06095 -4.259184,-0.179442 l -0.397818,-0.03385 -0.228533,-0.326719 A 51.442007,51.442007 0 0 1 15.195203,29.924587 51.38445,51.38445 0 0 1 13.221351,26.15294 l -0.169283,-0.360574 0.169283,-0.360575 a 51.293036,51.293036 0 0 1 1.973852,-3.771646 c 0.700834,-1.212073 1.471077,-2.42076 2.285333,-3.592206 l 0.228533,-0.326718 0.397818,-0.03385 a 50.421224,50.421224 0 0 1 8.520061,0 l 0.396124,0.03385 0.22684,0.326718 a 50.795342,50.795342 0 0 1 4.260877,7.363852 l 0.170978,0.360575 -0.170978,0.360574 a 50.108049,50.108049 0 0 1 -4.260877,7.363852 l -0.22684,0.326719 -0.396124,0.03385 c -1.433835,0.118498 -2.86767,0.179441 -4.260877,0.179441 z m -3.719169,-1.835039 c 2.505402,0.187906 4.932934,0.187906 7.440029,0 a 49.102502,49.102502 0 0 0 3.717476,-6.429404 48.389817,48.389817 0 0 0 -3.719168,-6.429405 49.144823,49.144823 0 0 0 -7.438337,0 48.206991,48.206991 0 0 0 -3.719168,6.429405 49.285329,49.285329 0 0 0 3.719168,6.429404 z"
     id="path31106"
     style="stroke-width:1.69284" /></svg>
