<?xml version="1.0" encoding="UTF-8" standalone="no"?>
<svg
   enable-background="new 0 0 32 32"
   height="32px"
   id="Layer_1"
   version="1.0"
   viewBox="0 0 32 32"
   width="32px"
   xml:space="preserve"
   sodipodi:docname="gethub.svg"
   inkscape:version="1.1.2 (b8e25be8, 2022-02-05)"
   xmlns:inkscape="http://www.inkscape.org/namespaces/inkscape"
   xmlns:sodipodi="http://sodipodi.sourceforge.net/DTD/sodipodi-0.dtd"
   xmlns="http://www.w3.org/2000/svg"
   xmlns:svg="http://www.w3.org/2000/svg"><defs
     id="defs26" /><sodipodi:namedview
     id="namedview24"
     pagecolor="#505050"
     bordercolor="#ffffff"
     borderopacity="1"
     inkscape:pageshadow="0"
     inkscape:pageopacity="0"
     inkscape:pagecheckerboard="1"
     showgrid="false"
     inkscape:zoom="19.53125"
     inkscape:cx="16"
     inkscape:cy="16"
     inkscape:window-width="1312"
     inkscape:window-height="969"
     inkscape:window-x="0"
     inkscape:window-y="25"
     inkscape:window-maximized="0"
     inkscape:current-layer="Layer_1" /><path
     clip-rule="evenodd"
     d="M16.003,0C7.17,0,0.008,7.162,0.008,15.997  c0,7.067,4.582,13.063,10.94,15.179c0.8,0.146,1.052-0.328,1.052-0.752c0-0.38,0.008-1.442,0-2.777  c-4.449,0.967-5.371-2.107-5.371-2.107c-0.727-1.848-1.775-2.34-1.775-2.34c-1.452-0.992,0.109-0.973,0.109-0.973  c1.605,0.113,2.451,1.649,2.451,1.649c1.427,2.443,3.743,1.737,4.654,1.329c0.146-1.034,0.56-1.739,1.017-2.139  c-3.552-0.404-7.286-1.776-7.286-7.906c0-1.747,0.623-3.174,1.646-4.292C7.28,10.464,6.73,8.837,7.602,6.634  c0,0,1.343-0.43,4.398,1.641c1.276-0.355,2.645-0.532,4.005-0.538c1.359,0.006,2.727,0.183,4.005,0.538  c3.055-2.07,4.396-1.641,4.396-1.641c0.872,2.203,0.323,3.83,0.159,4.234c1.023,1.118,1.644,2.545,1.644,4.292  c0,6.146-3.74,7.498-7.304,7.893C19.479,23.548,20,24.508,20,26c0,2,0,3.902,0,4.428c0,0.428,0.258,0.901,1.07,0.746  C27.422,29.055,32,23.062,32,15.997C32,7.162,24.838,0,16.003,0z"
     fill="#181616"
     fill-rule="evenodd"
     id="path9" /><g
     id="g11" /><g
     id="g13" /><g
     id="g15" /><g
     id="g17" /><g
     id="g19" /><g
     id="g21" /><path
     style="fill:#000000;stroke-width:0.0512"
     d="M 10.4704,30.981281 C 8.7322286,30.309826 7.2994135,29.488971 5.9148887,28.371444 5.3851116,27.943832 4.3965748,26.975574 3.8956213,26.3936 1.713955,23.859088 0.40499482,20.762498 0.10005674,17.414484 0.01327195,16.461645 0.06247094,14.565822 0.19655604,13.696 0.54174111,11.456755 1.3183185,9.3536297 2.4821243,7.5062313 4.9037585,3.6621844 8.868118,1.0089361 13.312,0.25806197 c 1.78089,-0.30091353 3.89793,-0.28938139 5.6064,0.0305397 3.375961,0.63216871 6.56857,2.40409973 8.843436,4.90819833 2.362367,2.6004173 3.750053,5.692841 4.135564,9.216 0.07208,0.658765 0.07192,2.513642 -3.07e-4,3.1744 -0.190716,1.74531 -0.638528,3.424381 -1.312008,4.91937 -1.754689,3.895052 -4.988874,6.939526 -8.964212,8.438388 -0.696456,0.262592 -0.970006,0.292827 -1.22771,0.135695 C 20.030535,30.859545 20.047885,31.005763 20.01651,27.906362 19.98948,25.235915 19.98331,25.095661 19.875748,24.704 19.730875,24.176487 19.462839,23.632374 19.201727,23.335736 19.088146,23.206679 18.9952,23.090524 18.9952,23.077614 c 0,-0.01291 0.15552,-0.03909 0.3456,-0.05817 0.58735,-0.05898 1.597201,-0.281988 2.22508,-0.491382 1.873003,-0.624633 3.032634,-1.584146 3.805595,-3.148858 0.562781,-1.139243 0.787218,-2.158259 0.829318,-3.765367 0.02044,-0.78039 0.0077,-1.117358 -0.05785,-1.531314 -0.178583,-1.127533 -0.613648,-2.071648 -1.421231,-3.084155 -0.107195,-0.134396 -0.107816,-0.144641 -0.02637,-0.4352 C 25.002571,9.467138 24.95276,8.150423 24.560173,6.9900124 24.448328,6.6594217 24.426309,6.6299812 24.264465,6.5946383 24.068847,6.5519196 23.483317,6.6179251 23.040894,6.7325681 22.356856,6.9098204 21.296706,7.4138337 20.436655,7.970668 L 20.00931,8.2473498 19.591855,8.1434921 C 17.442441,7.6087439 14.705001,7.5970662 12.561993,8.1135032 L 12.020753,8.2439347 11.395536,7.8603622 C 9.9610691,6.9803116 8.5113262,6.4685788 7.7826898,6.5850926 7.5983237,6.6145736 7.5788636,6.6351206 7.479616,6.9050982 7.217472,7.6181924 7.1457152,8.0685128 7.1440154,9.0112 c -0.00129,0.7123891 0.018185,0.9746903 0.095009,1.28 0.053144,0.2112 0.1157776,0.421449 0.1391867,0.467219 0.031051,0.06071 -0.024396,0.166652 -0.2050038,0.391693 -0.9542261,1.188989 -1.387607,2.46922 -1.387607,4.099071 0,1.20803 0.1615104,2.293018 0.4865306,3.268397 0.830486,2.49227 2.8016455,3.962122 5.9646691,4.447728 0.29568,0.04539 0.592733,0.09356 0.660118,0.107026 l 0.122518,0.02449 -0.15486,0.163588 c -0.330739,0.349379 -0.62455,0.97339 -0.752024,1.597188 -0.05768,0.282252 -0.07869,0.31481 -0.258729,0.400906 -0.312049,0.149225 -0.936967,0.293206 -1.413332,0.325633 C 9.2502395,25.665161 8.2606244,25.114085 7.4899651,23.941112 6.9613722,23.136575 6.447423,22.677521 5.7427082,22.380482 5.442838,22.254086 4.8810007,22.187004 4.5859096,22.242363 4.3835651,22.280324 4.1984,22.428973 4.1984,22.553453 c 0,0.1235 0.3330392,0.457129 0.7133489,0.71461 0.6231636,0.421903 1.1096322,1.026275 1.4976294,1.860604 0.4409134,0.948117 0.5062886,1.069098 0.7317289,1.354114 0.4467328,0.564786 1.1672044,1.013975 1.9620869,1.223292 0.5590799,0.147223 1.5682079,0.18065 2.2594239,0.07484 0.2936,-0.04494 0.5528,-0.08171 0.576,-0.08171 0.0232,0 0.04215,0.65088 0.0421,1.4464 -5.2e-5,1.27586 -0.01064,1.4671 -0.0896,1.621961 -0.229838,0.450739 -0.645352,0.513245 -1.420721,0.21372 z"
     id="path163" /></svg>
