<?xml version="1.0" encoding="UTF-8" standalone="no"?>
<svg
   height="72"
   viewBox="0 0 72 72"
   width="72"
   version="1.1"
   id="svg112"
   sodipodi:docname="mail.svg"
   inkscape:version="1.1.2 (b8e25be8, 2022-02-05)"
   xmlns:inkscape="http://www.inkscape.org/namespaces/inkscape"
   xmlns:sodipodi="http://sodipodi.sourceforge.net/DTD/sodipodi-0.dtd"
   xmlns="http://www.w3.org/2000/svg"
   xmlns:svg="http://www.w3.org/2000/svg">
  <defs
     id="defs116">
    <inkscape:path-effect
       effect="powerclip"
       id="path-effect1891"
       is_visible="true"
       lpeversion="1"
       inverse="true"
       flatten="false"
       hide_clip="false"
       message="Use fill-rule evenodd on &lt;b&gt;fill and stroke&lt;/b&gt; dialog if no flatten result after convert clip to paths." />
    <clipPath
       clipPathUnits="userSpaceOnUse"
       id="clipPath1887">
      <path
         d="m 14.595826,23.455709 v 25.37303 c 0,1.380382 0.950654,2.499143 2.260353,2.499143 h 37.259112 c 1.30834,0 2.260354,-1.131769 2.260354,-2.499143 v -25.37303 c 0,-1.514809 -0.851373,-2.691386 -2.260354,-2.691386 H 16.856179 c -1.463381,0 -2.260353,1.205486 -2.260353,2.691386 m 3.43541,2.210057 c 0,-0.611415 0.348166,-0.961209 0.904414,-0.961209 0.344085,0 13.883086,9.117756 14.703178,9.652564 l 2.118911,1.400618 c 0.67185,-0.478436 1.34642,-0.887492 2.04275,-1.383273 1.421222,-0.965545 14.066688,-9.669909 14.414854,-9.669909 0.557609,0 0.904414,0.349794 0.904414,0.961209 0,0.647552 -1.173698,1.290768 -1.938029,1.786548 -4.802231,3.11056 -9.603103,6.501532 -14.357733,9.727726 -0.277444,0.199469 -0.814652,0.62587 -1.217218,0.560826 -0.448807,-0.07372 -14.225811,-9.480557 -16.732328,-11.0474 -0.376725,-0.235605 -0.843213,-0.450974 -0.843213,-1.0277"
         fill="#ffffff"
         id="path1889"
         style="display:none;fill:#ffffff;fill-opacity:1;fill-rule:evenodd;stroke-width:1.20734" />
      <path
         id="lpe_path-effect1891"
         style="fill:#ffffff;fill-opacity:1;fill-rule:evenodd;stroke-width:1.20734"
         class="powerclip"
         d="M -5,-5 H 77 V 77 H -5 Z m 19.595826,28.455709 v 25.37303 c 0,1.380382 0.950654,2.499143 2.260353,2.499143 h 37.259112 c 1.30834,0 2.260354,-1.131769 2.260354,-2.499143 v -25.37303 c 0,-1.514809 -0.851373,-2.691386 -2.260354,-2.691386 H 16.856179 c -1.463381,0 -2.260353,1.205486 -2.260353,2.691386 m 3.43541,2.210057 c 0,0.576726 0.466488,0.792095 0.843213,1.0277 2.506517,1.566843 16.283521,10.97368 16.732328,11.0474 0.402566,0.06504 0.939774,-0.361357 1.217218,-0.560826 4.75463,-3.226194 9.555502,-6.617166 14.357733,-9.727726 0.764331,-0.49578 1.938029,-1.138996 1.938029,-1.786548 0,-0.611415 -0.346805,-0.961209 -0.904414,-0.961209 -0.348166,0 -12.993632,8.704364 -14.414854,9.669909 -0.69633,0.495781 -1.3709,0.904837 -2.04275,1.383273 L 33.638828,34.357121 C 32.818736,33.822313 19.279735,24.704557 18.93565,24.704557 c -0.556248,0 -0.904414,0.349794 -0.904414,0.961209" />
    </clipPath>
  </defs>
  <sodipodi:namedview
     id="namedview114"
     pagecolor="#505050"
     bordercolor="#ffffff"
     borderopacity="1"
     inkscape:pageshadow="0"
     inkscape:pageopacity="0"
     inkscape:pagecheckerboard="1"
     showgrid="false"
     showguides="true"
     inkscape:guide-bbox="true"
     inkscape:zoom="10.319444"
     inkscape:cx="36"
     inkscape:cy="36"
     inkscape:window-width="1312"
     inkscape:window-height="969"
     inkscape:window-x="0"
     inkscape:window-y="25"
     inkscape:window-maximized="0"
     inkscape:current-layer="svg112">
    <sodipodi:guide
       position="35.757739,43.122476"
       orientation="1,0"
       id="guide200" />
    <sodipodi:guide
       position="38.374159,36.242261"
       orientation="0,-1"
       id="guide202" />
  </sodipodi:namedview>
  <path
     d="m 36,72 v 0 C 55.882251,72 72,55.882251 72,36 v 0 C 72,16.117749 55.882251,0 36,0 V 0 C 16.117749,0 0,16.117749 0,36 v 0 c 0,19.882251 16.117749,36 36,36 z"
     fill="#000000"
     id="path106"
     style="fill-rule:evenodd"
     clip-path="url(#clipPath1887)"
     inkscape:path-effect="#path-effect1891"
     inkscape:original-d="m 36,72 v 0 C 55.882251,72 72,55.882251 72,36 v 0 C 72,16.117749 55.882251,0 36,0 V 0 C 16.117749,0 0,16.117749 0,36 v 0 c 0,19.882251 16.117749,36 36,36 z" />
</svg>
