<?xml version="1.0" encoding="UTF-8" standalone="no"?>
<svg
   width="500"
   zoomAndPan="magnify"
   viewBox="0 0 375 374.999991"
   height="500"
   preserveAspectRatio="xMidYMid meet"
   version="1.0"
   id="svg13105"
   sodipodi:docname="B.svg"
   inkscape:version="1.1.2 (b8e25be8, 2022-02-05)"
   xmlns:inkscape="http://www.inkscape.org/namespaces/inkscape"
   xmlns:sodipodi="http://sodipodi.sourceforge.net/DTD/sodipodi-0.dtd"
   xmlns="http://www.w3.org/2000/svg"
   xmlns:svg="http://www.w3.org/2000/svg">
  <sodipodi:namedview
     id="namedview13107"
     pagecolor="#505050"
     bordercolor="#ffffff"
     borderopacity="1"
     inkscape:pageshadow="0"
     inkscape:pageopacity="0"
     inkscape:pagecheckerboard="1"
     showgrid="false"
     showguides="true"
     inkscape:guide-bbox="true"
     inkscape:zoom="1.767767"
     inkscape:cx="105.21749"
     inkscape:cy="268.98342"
     inkscape:window-width="1901"
     inkscape:window-height="1313"
     inkscape:window-x="0"
     inkscape:window-y="25"
     inkscape:window-maximized="0"
     inkscape:current-layer="svg13105">
    <sodipodi:guide
       position="187.52472,420.82051"
       orientation="1,0"
       id="guide13562" />
    <sodipodi:guide
       position="-232.49671,187.47528"
       orientation="0,-1"
       id="guide13564" />
    <sodipodi:guide
       position="-147.21963,73.348245"
       orientation="0,-1"
       id="guide13570" />
  </sodipodi:namedview>
  <defs
     id="defs13091">
    <g
       id="g13086" />
    <clipPath
       id="id1">
      <path
         d="M 141.609375 100.601562 L 267.609375 100.601562 L 267.609375 160.601562 L 141.609375 160.601562 Z M 141.609375 100.601562 "
         clip-rule="nonzero"
         id="path13088" />
    </clipPath>
  </defs>
  <g
     fill="#000000"
     fill-opacity="1"
     id="g13103"
     transform="matrix(1.5046418,0,0,1.5046418,-123.04777,-121.55554)">
    <g
       transform="translate(133.64396,316.7701)"
       id="g13101">
      <g
         id="g13099">
        <path
           d="m 11.625,0 c -1.210938,0 -1.8125,-0.53125 -1.8125,-1.59375 0,-1.820312 0.679688,-3.53125 2.046875,-5.125 1.363281,-1.601562 3.414063,-3.394531 6.15625,-5.375 3.5,-2.582031 5.929687,-4.972656 7.296875,-7.171875 1.375,-2.207031 2.289062,-4.832031 2.75,-7.875 L 41.96875,-120.4375 c 0.457031,-3.64453 2.890625,-7.40625 7.296875,-11.28125 4.414063,-3.88281 8.367187,-5.82812 11.859375,-5.82812 1.675781,0 2.515625,0.53906 2.515625,1.60937 0,0.44922 -0.761719,1.66406 -2.28125,3.64063 -1.523437,1.98046 -2.664063,5.55468 -3.421875,10.71874 l -5.015625,34.218755 h 19.84375 c 8.664063,-2.28125 15.660156,-6.878906 20.984375,-13.796875 5.320312,-6.91406 7.98438,-14.17578 7.98438,-21.78125 0,-7.90625 -3.042974,-13.98828 -9.125005,-18.25 -6.085937,-4.25781 -14.828125,-6.39062 -26.234375,-6.39062 -20.53125,0 -37.03125,7.60546 -49.5,22.81249 -1.0625,1.36719 -2.015625,2.50782 -2.859375,3.42188 -0.835937,0.90625 -1.632813,1.35937 -2.390625,1.35937 -1.367188,0 -2.046875,-0.60156 -2.046875,-1.8125 0,-0.75781 0.226563,-1.82812 0.6875,-3.20312 3.039063,-10.78906 10.375,-19.41406 22,-25.875 11.632813,-6.46875 25.515625,-9.70312 41.640625,-9.70312 13.6875,0 24.554688,2.85546 32.60938,8.5625 8.0625,5.69921 12.09375,13.64062 12.09375,23.82812 0,8.36719 -2.625,16.38672 -7.875,24.0625 -5.24219,7.679688 -12.351568,13.949219 -21.32813,18.8125 16.88281,9.429688 25.32813,22.433594 25.32813,39.015625 0,9.273437 -2.4336,17.40625 -7.29688,24.40625 -4.86719,6.992187 -11.59375,12.386719 -20.1875,16.1875 C 78.65625,-1.898438 68.957031,0 58.15625,0 52.84375,0 45.546875,-0.679688 36.265625,-2.046875 c -6.085937,-0.914063 -9.960937,-1.375 -11.625,-1.375 -3.199219,0 -5.980469,0.574219 -8.34375,1.71875 C 13.941406,-0.566406 12.382812,0 11.625,0 Z m 50.421875,-13.6875 c 12.46875,0 21.664063,-2.203125 27.59375,-6.609375 5.925781,-4.414063 8.890625,-11.410156 8.890625,-20.984375 0,-8.0625 -2.054688,-15.09375 -6.15625,-21.09375 -4.105469,-6.007812 -10.109375,-10.6875 -18.015625,-14.03125 H 51.09375 l -6.609375,45.390625 c -0.617187,3.648437 -1.417969,6.574219 -2.40625,8.78125 -0.992187,2.199219 -2.398437,4.214844 -4.21875,6.046875 v 0.453125 c 5.019531,1.367187 13.082031,2.046875 24.1875,2.046875 z m 0,0"
           id="path13097" />
      </g>
    </g>
  </g>
  <path
     style="fill:#000000;stroke-width:0.862547"
     d="m 124.6877,109.02174 c -6.95781,-20.111878 -15.64699,-50.950414 -22.26599,-60.725275 -2.17596,-3.213414 -3.956286,-6.032059 -3.956286,-6.263639 0,-0.231593 1.649626,-0.199147 3.665826,0.07217 16.93557,2.278403 22.78634,4.11373 25.28866,7.932753 1.05796,1.614644 1.29595,3.208487 0.90502,6.060714 -0.29175,2.128455 -0.12838,6.386533 0.36296,9.462389 2.58978,16.21132 13.99728,22.9296 31.80618,18.7318 12.26154,-2.89022 18.19467,-8.36281 18.17977,-16.768643 -0.0101,-5.785404 -2.30134,-10.989911 -8.50712,-19.324966 -2.43246,-3.26705 -4.42264,-6.633542 -4.42264,-7.481109 0,-2.356277 3.63214,-6.179392 13.12535,-13.81546 l 8.65529,-6.962054 2.69479,2.514938 c 1.48214,1.383213 5.05814,4.297682 7.94671,6.476602 6.29418,4.747889 10.7052,9.589326 10.7052,11.749819 0,0.867449 -1.99195,4.250214 -4.42656,7.517264 -8.22735,11.040462 -10.6137,19.643059 -7.25215,26.143549 3.86555,7.47514 21.81634,13.158 33.05019,10.46304 5.12408,-1.22924 10.7074,-5.64722 13.12453,-10.38518 2.14123,-4.197146 3.503,-12.729503 2.87625,-18.021429 -1.04179,-8.796201 3.77334,-11.376678 26.80159,-14.363247 l 4.22685,-0.548191 -2.59795,3.306861 c -6.67485,8.496211 -16.35839,37.659876 -24.11615,59.059374 l -3.63231,10.01958 -5.74699,-2.41409 c -7.47709,-3.14085 -18.86252,-6.41679 -28.83238,-8.29599 -12.29895,-2.31821 -38.57061,-2.11405 -51.09363,0.39706 -9.9648,1.99814 -22.54551,5.83288 -30.1074,9.17714 l -4.4858,1.98384 z"
     id="path13147"
     sodipodi:nodetypes="ssscsscscssscssssssssscsscsssscs" />
</svg>
