<?xml version="1.0" encoding="UTF-8" standalone="no"?>
<svg
   width="16"
   zoomAndPan="magnify"
   viewBox="0 0 12 12"
   height="16"
   preserveAspectRatio="xMidYMid meet"
   version="1.0"
   id="svg13105"
   sodipodi:docname="B.svg"
   inkscape:version="1.1.2 (b8e25be8, 2022-02-05)"
   inkscape:export-filename="/Users/shantibetts/Downloads/crownb32.png"
   inkscape:export-xdpi="192"
   inkscape:export-ydpi="192"
   xmlns:inkscape="http://www.inkscape.org/namespaces/inkscape"
   xmlns:sodipodi="http://sodipodi.sourceforge.net/DTD/sodipodi-0.dtd"
   xmlns="http://www.w3.org/2000/svg"
   xmlns:svg="http://www.w3.org/2000/svg">
  <sodipodi:namedview
     id="namedview13107"
     pagecolor="#505050"
     bordercolor="#ffffff"
     borderopacity="1"
     inkscape:pageshadow="0"
     inkscape:pageopacity="0"
     inkscape:pagecheckerboard="1"
     showgrid="false"
     showguides="true"
     inkscape:guide-bbox="true"
     inkscape:zoom="40.000001"
     inkscape:cx="7.5624998"
     inkscape:cy="7.8374998"
     inkscape:window-width="1901"
     inkscape:window-height="1313"
     inkscape:window-x="0"
     inkscape:window-y="25"
     inkscape:window-maximized="0"
     inkscape:current-layer="svg13105"
     width="16px">
    <sodipodi:guide
       position="5.9999999,-2.4749996"
       orientation="1,0"
       id="guide13562" />
    <sodipodi:guide
       position="-2.4749999,11.38125"
       orientation="0,-1"
       id="guide13564" />
    <sodipodi:guide
       position="-2.7562499,0.61875028"
       orientation="0,-1"
       id="guide13570" />
  </sodipodi:namedview>
  <defs
     id="defs13091">
    <g
       id="g13086" />
    <clipPath
       id="id1">
      <path
         d="m 141.60937,100.60156 h 126 v 60 h -126 z m 0,0"
         clip-rule="nonzero"
         id="path13088" />
    </clipPath>
  </defs>
  <g
     id="g227"
     transform="translate(-51.446403,-59.574073)">
    <g
       fill="#000000"
       fill-opacity="1"
       id="g13103"
       transform="matrix(0.04814854,0,0,0.04814854,47.508063,55.665263)">
      <g
         transform="translate(133.64396,316.7701)"
         id="g13101">
        <g
           id="g13099">
          <path
             d="m 11.625,0 c -1.210938,0 -1.8125,-0.53125 -1.8125,-1.59375 0,-1.820312 0.679688,-3.53125 2.046875,-5.125 1.363281,-1.601562 3.414063,-3.394531 6.15625,-5.375 3.5,-2.582031 5.929687,-4.972656 7.296875,-7.171875 1.375,-2.207031 2.289062,-4.832031 2.75,-7.875 L 41.96875,-120.4375 c 0.457031,-3.64453 2.890625,-7.40625 7.296875,-11.28125 4.414063,-3.88281 8.367187,-5.82812 11.859375,-5.82812 1.675781,0 2.515625,0.53906 2.515625,1.60937 0,0.44922 -0.761719,1.66406 -2.28125,3.64063 -1.523437,1.98046 -2.664063,5.55468 -3.421875,10.71874 l -5.015625,34.218755 h 19.84375 c 8.664063,-2.28125 15.660156,-6.878906 20.984375,-13.796875 5.320312,-6.91406 7.98438,-14.17578 7.98438,-21.78125 0,-7.90625 -3.042974,-13.98828 -9.125005,-18.25 -6.085937,-4.25781 -14.828125,-6.39062 -26.234375,-6.39062 -20.53125,0 -37.03125,7.60546 -49.5,22.81249 -1.0625,1.36719 -2.015625,2.50782 -2.859375,3.42188 -0.835937,0.90625 -1.632813,1.35937 -2.390625,1.35937 -1.367188,0 -2.046875,-0.60156 -2.046875,-1.8125 0,-0.75781 0.226563,-1.82812 0.6875,-3.20312 3.039063,-10.78906 10.375,-19.41406 22,-25.875 11.632813,-6.46875 25.515625,-9.70312 41.640625,-9.70312 13.6875,0 24.554688,2.85546 32.60938,8.5625 8.0625,5.69921 12.09375,13.64062 12.09375,23.82812 0,8.36719 -2.625,16.38672 -7.875,24.0625 -5.24219,7.679688 -12.351568,13.949219 -21.32813,18.8125 16.88281,9.429688 25.32813,22.433594 25.32813,39.015625 0,9.273437 -2.4336,17.40625 -7.29688,24.40625 -4.86719,6.992187 -11.59375,12.386719 -20.1875,16.1875 C 78.65625,-1.898438 68.957031,0 58.15625,0 52.84375,0 45.546875,-0.679688 36.265625,-2.046875 c -6.085937,-0.914063 -9.960937,-1.375 -11.625,-1.375 -3.199219,0 -5.980469,0.574219 -8.34375,1.71875 C 13.941406,-0.566406 12.382812,0 11.625,0 Z m 50.421875,-13.6875 c 12.46875,0 21.664063,-2.203125 27.59375,-6.609375 5.925781,-4.414063 8.890625,-11.410156 8.890625,-20.984375 0,-8.0625 -2.054688,-15.09375 -6.15625,-21.09375 -4.105469,-6.007812 -10.109375,-10.6875 -18.015625,-14.03125 H 51.09375 l -6.609375,45.390625 c -0.617187,3.648437 -1.417969,6.574219 -2.40625,8.78125 -0.992187,2.199219 -2.398437,4.214844 -4.21875,6.046875 v 0.453125 c 5.019531,1.367187 13.082031,2.046875 24.1875,2.046875 z m 0,0"
             id="path13097" />
        </g>
      </g>
    </g>
    <path
       style="fill:#000000;stroke-width:0.0276015"
       d="m 55.435593,63.043743 c -0.22265,-0.64358 -0.5007,-1.63042 -0.71251,-1.94321 -0.0696,-0.10283 -0.1266,-0.19303 -0.1266,-0.20044 0,-0.007 0.0528,-0.006 0.11731,0.002 0.54193,0.0729 0.72916,0.13164 0.80923,0.25385 0.0339,0.0517 0.0415,0.10267 0.029,0.19394 -0.009,0.0681 -0.004,0.20437 0.0116,0.3028 0.0829,0.51876 0.44791,0.73374 1.0178,0.59941 0.39237,-0.0925 0.58223,-0.2676 0.58175,-0.53659 -3.2e-4,-0.18513 -0.0736,-0.35168 -0.27223,-0.6184 -0.0778,-0.10455 -0.14152,-0.21227 -0.14152,-0.2394 0,-0.0754 0.11623,-0.19774 0.42001,-0.44209 l 0.27697,-0.22279 0.0862,0.0805 c 0.0474,0.0443 0.16186,0.13753 0.2543,0.20725 0.20141,0.15194 0.34256,0.30686 0.34256,0.376 0,0.0278 -0.0637,0.136 -0.14165,0.24055 -0.26327,0.35329 -0.33964,0.62858 -0.23207,0.83659 0.1237,0.23921 0.69813,0.42106 1.05761,0.33482 0.16397,-0.0393 0.34264,-0.18071 0.41998,-0.33233 0.0685,-0.1343 0.1121,-0.40734 0.092,-0.57668 -0.0333,-0.28148 0.12075,-0.36405 0.85765,-0.45963 l 0.13526,-0.0175 -0.0831,0.10582 c -0.2136,0.27188 -0.52347,1.20512 -0.77172,1.8899 l -0.11623,0.32063 -0.1839,-0.0772 c -0.23927,-0.10051 -0.60361,-0.20534 -0.92264,-0.26547 -0.39357,-0.0742 -1.23426,-0.0677 -1.635,0.0127 -0.31887,0.0639 -0.72145,0.18665 -0.96343,0.29367 l -0.14355,0.0635 z"
       id="path13147"
       sodipodi:nodetypes="ssscsscscssscssssssssscsscsssscs" />
  </g>
</svg>
