<?xml version="1.0" standalone="no"?>
<!DOCTYPE svg PUBLIC "-//W3C//DTD SVG 20010904//EN"
 "http://www.w3.org/TR/2001/REC-SVG-20010904/DTD/svg10.dtd">
<svg version="1.0" xmlns="http://www.w3.org/2000/svg"
 width="700.000000pt" height="700.000000pt" viewBox="0 0 700.000000 700.000000"
 preserveAspectRatio="xMidYMid meet">
<metadata>
Created by potrace 1.14, written by Peter Selinger 2001-2017
</metadata>
<g transform="translate(0.000000,700.000000) scale(0.100000,-0.100000)"
fill="#000000" stroke="none">
<path d="M3365 6531 c-149 -121 -259 -227 -267 -259 -7 -27 22 -84 90 -179
142 -195 179 -341 117 -463 -72 -143 -357 -243 -579 -205 -156 27 -256 119
-303 278 -24 82 -25 87 -27 217 -3 164 -16 189 -126 230 -56 22 -197 53 -285
64 -27 3 -71 9 -98 12 -56 7 -56 2 4 -86 85 -127 134 -250 320 -814 82 -247
151 -451 153 -453 2 -2 33 10 70 26 119 55 433 154 556 175 76 13 98 16 125
21 145 24 646 24 790 0 28 -5 94 -17 105 -20 3 0 23 -4 45 -9 104 -20 377
-104 460 -141 90 -41 91 -41 110 7 9 24 39 106 67 183 261 734 363 976 453
1083 14 17 25 32 25 34 0 5 -225 -26 -307 -42 -159 -31 -245 -80 -261 -148 -5
-20 -8 -77 -7 -127 2 -101 -21 -229 -55 -295 -46 -90 -174 -182 -272 -197
-104 -15 -222 -2 -340 37 -183 61 -265 142 -273 268 -5 98 39 208 150 367 87
126 100 152 86 181 -19 42 -93 115 -221 217 -69 55 -129 106 -133 113 -23 40
-40 33 -172 -75z"/>
<path d="M3447 4894 c-1 -1 -53 -5 -116 -8 -341 -21 -636 -97 -906 -234 -349
-178 -564 -408 -665 -713 -27 -81 -35 -122 -31 -157 0 -7 13 -17 27 -22 40
-16 81 11 154 101 135 168 286 304 448 406 81 50 236 130 271 139 9 2 55 17
102 33 172 59 353 85 594 85 167 0 250 -7 363 -30 411 -84 626 -312 623 -664
0 -52 -3 -106 -6 -120 -2 -14 -7 -38 -11 -55 -12 -64 -58 -191 -92 -254 -140
-263 -357 -450 -625 -539 -82 -27 -83 -27 -352 -25 -306 1 -288 1 -282 11 3 4
8 34 11 67 4 33 8 67 11 75 2 8 6 38 10 65 3 28 10 75 15 105 5 30 12 73 14
95 3 22 15 101 26 175 10 74 22 153 25 175 3 22 8 51 10 65 3 14 7 48 11 75
20 166 57 283 120 376 56 81 56 113 0 123 -104 20 -287 -80 -425 -231 -95
-103 -132 -181 -146 -308 -3 -27 -9 -75 -15 -105 -5 -30 -12 -75 -15 -100 -4
-25 -13 -85 -20 -135 -8 -49 -17 -112 -21 -140 -3 -27 -8 -57 -9 -67 -2 -9 -6
-36 -10 -60 -3 -23 -8 -56 -10 -73 -3 -16 -7 -48 -11 -70 -3 -22 -12 -78 -19
-125 -8 -47 -17 -107 -20 -135 -3 -27 -7 -61 -10 -75 -2 -14 -6 -43 -10 -65
-3 -23 -8 -52 -10 -65 -3 -14 -8 -45 -11 -70 -3 -25 -7 -56 -9 -70 -6 -36 -25
-161 -30 -190 -2 -14 -6 -45 -10 -70 -3 -25 -8 -56 -10 -70 -2 -14 -7 -43 -10
-65 -3 -23 -7 -50 -9 -60 -2 -11 -9 -56 -16 -100 -6 -44 -13 -91 -15 -105 -3
-14 -7 -45 -10 -70 -3 -25 -7 -54 -9 -65 -2 -11 -9 -56 -16 -100 -6 -44 -13
-91 -15 -105 -2 -14 -9 -54 -14 -90 -22 -145 -23 -150 -37 -205 -29 -113 -112
-220 -258 -328 -153 -115 -219 -192 -231 -273 -13 -78 32 -88 153 -35 108 47
172 60 280 56 53 -3 113 -7 132 -9 71 -11 176 -26 220 -31 25 -3 55 -8 67 -11
12 -2 51 -7 85 -10 35 -3 74 -7 88 -10 103 -18 401 -24 545 -11 705 66 1208
441 1341 997 22 96 29 170 28 315 -3 421 -200 752 -605 1012 -49 31 -89 60
-89 63 0 4 33 26 73 50 214 128 418 325 545 526 121 192 185 401 186 609 1
129 -6 187 -35 281 -75 248 -278 440 -579 548 -76 28 -214 64 -273 71 -18 2
-61 8 -97 13 -36 5 -103 10 -150 11 -47 1 -111 3 -143 4 -32 1 -59 2 -60 1z
m161 -2395 c298 -137 514 -390 582 -681 64 -279 36 -537 -79 -716 -90 -139
-228 -227 -441 -283 -159 -41 -254 -48 -575 -44 -316 4 -335 5 -482 31 -65 11
-93 21 -93 30 0 8 4 14 9 14 15 0 92 119 118 182 31 78 56 192 83 386 12 84
23 162 26 175 2 12 7 47 10 77 3 30 7 57 9 60 2 3 6 30 10 60 3 30 18 132 31
225 14 94 27 188 30 210 3 22 9 63 14 90 5 28 12 73 15 100 3 28 8 65 11 83
l6 32 325 0 325 0 66 -31z"/>
</g>
</svg>
